<?xml version="1.0" standalone="no"?>
<!DOCTYPE svg PUBLIC "-//W3C//DTD SVG 20010904//EN"
 "http://www.w3.org/TR/2001/REC-SVG-20010904/DTD/svg10.dtd">
<svg version="1.0" xmlns="http://www.w3.org/2000/svg"
 width="32.000000pt" height="20.000000pt" viewBox="0 0 32.000000 20.000000"
 preserveAspectRatio="xMidYMid meet">
<metadata>
Created by potrace 1.15, written by Peter Selinger 2001-2017
</metadata>
<g transform="translate(0.000000,20.000000) scale(0.100000,-0.100000)"
fill="#000000" stroke="none">
<path d="M65 176 c-33 -13 -60 -29 -60 -36 0 -7 16 -19 35 -26 19 -7 29 -13
22 -13 -9 -1 -12 -12 -10 -33 2 -26 10 -36 38 -50 44 -22 79 -22 130 -2 46 18
65 58 37 79 -13 10 -11 13 15 23 l31 11 -6 -54 c-4 -44 -3 -55 9 -55 11 0 14
16 14 68 l0 68 -68 22 c-85 27 -111 27 -187 -2z"/>
</g>
</svg>
