<?xml version="1.0" encoding="utf-8"?><svg xmlns="http://www.w3.org/2000/svg" xmlns:xlink="http://www.w3.org/1999/xlink"><symbol viewBox="0 0 407.437 407.437" id="arrow-down" xmlns="http://www.w3.org/2000/svg"><path d="M386.258 91.567l-182.54 181.945L21.178 91.567 0 112.815 203.718 315.87l203.72-203.055z"/></symbol><symbol viewBox="0 0 407.436 407.436" id="arrow-left" xmlns="http://www.w3.org/2000/svg"><path d="M315.87 21.178L294.62 0 91.567 203.718 294.62 407.436l21.25-21.178-181.946-182.54z"/></symbol><symbol viewBox="0 0 407.436 407.436" id="arrow-right" xmlns="http://www.w3.org/2000/svg"><path d="M112.814 0L91.566 21.178l181.946 182.54-181.946 182.54 21.248 21.178L315.87 203.718z"/></symbol><symbol viewBox="0 0 407.436 407.436" id="arrow-up" xmlns="http://www.w3.org/2000/svg"><path d="M203.718 91.567L0 294.62l21.18 21.25 182.538-181.946 182.54 181.945 21.178-21.25z"/></symbol><symbol viewBox="0 0 512 512" id="basket" xmlns="http://www.w3.org/2000/svg"><path d="M480.6 179.6h-54C425.5 86.4 349.4 11 256 11S86.5 86.4 85.5 179.6h-54c-19.1 1.5-21.1 17.9-20.1 23.8L59 484c1.7 9.8 10.2 17 20.1 17h353.8c10 0 18.5-7.2 20.1-17l47.7-280.6c1-5.9-1.4-22.4-20.1-23.8zM256 51.8c70.9 0 128.6 57.1 129.7 127.7H126.3c1.1-70.6 58.8-127.7 129.7-127.7zm159.7 408.4H96.4L55.6 220.4h400.8l-40.7 239.8z"/><path d="M170.9 309.7H341c11.3 0 20.4-9.1 20.4-20.4s-9.1-20.4-20.4-20.4H170.9c-11.3 0-20.4 9.1-20.4 20.4s9.2 20.4 20.4 20.4zm0 102H341c11.3 0 20.4-9.1 20.4-20.4 0-11.3-9.1-20.4-20.4-20.4H170.9c-11.3 0-20.4 9.1-20.4 20.4 0 11.3 9.2 20.4 20.4 20.4z"/></symbol><symbol viewBox="0 0 448.8 448.8" id="check" xmlns="http://www.w3.org/2000/svg"><path d="M142.8 323.85L35.7 216.75 0 252.45l142.8 142.8 306-306-35.7-35.7z"/></symbol><symbol viewBox="0 0 489.327 489.327" id="check-bold" xmlns="http://www.w3.org/2000/svg"><path d="M478.483 273.213l-9.2-12.6c-7.6-10.4-7.7-24.5-.3-35.1l9-12.7c10.4-14.8 5.6-35.3-10.4-43.9l-13.7-7.4c-11.4-6.1-17.6-18.8-15.5-31.5l2.6-15.4c3-17.8-10.3-34.3-28.4-35l-15.6-.7c-12.9-.5-24-9.3-27.6-21.7l-4.3-15c-5-17.4-24.1-26.4-40.8-19.2l-14.3 6.2c-11.9 5.1-25.6 2.1-34.3-7.6l-10.4-11.6c-12.1-13.5-33.2-13.3-45.1.3l-10.2 11.8c-8.5 9.7-22.2 13-34.1 8.1l-14.4-5.9c-16.7-6.9-35.7 2.4-40.5 19.9l-4.1 15c-3.3 12.6-14.2 21.5-27.1 22.2l-15.6.9c-18.1 1-31.1 17.7-27.8 35.4l2.8 15.3c2.3 12.7-3.7 25.5-15 31.7l-13.6 7.6c-15.8 8.8-20.4 29.4-9.7 44l9.2 12.6c7.6 10.4 7.7 24.5.3 35.1l-9 12.7c-10.4 14.8-5.6 35.3 10.4 43.9l13.7 7.4c11.4 6.1 17.6 18.8 15.5 31.5l-2.7 15.3c-3 17.8 10.3 34.3 28.4 35l15.6.7c12.9.5 24 9.3 27.6 21.7l4.3 15c5 17.4 24.1 26.4 40.8 19.2l14.3-6.2c11.9-5.1 25.6-2.1 34.3 7.5l10.4 11.6c12.1 13.5 33.2 13.3 45.1-.3l10.2-11.8c8.5-9.7 22.2-13 34.1-8.1l14.4 5.9c16.7 6.9 35.7-2.4 40.5-19.9l4.1-15c3.4-12.4 14.4-21.3 27.3-22.1l15.6-.9c18.1-1 31.1-17.7 27.8-35.4l-2.8-15.3c-2.3-12.7 3.7-25.5 15-31.7l13.6-7.6c15.7-8.6 20.2-29.3 9.6-43.9zm-233.8 129.5c-87.2 0-157.9-70.7-157.9-157.9s70.7-157.9 157.9-157.9 157.9 70.7 157.9 157.9-70.7 157.9-157.9 157.9z"/><path d="M224.483 249.013l-14-14.1c-8.3-8.4-21.9-8.4-30.3-.1-8.4 8.3-8.4 21.9-.1 30.3l14 14.1 15.6 15.6c8.1 8.2 21.3 8.2 29.5.1l15.6-15.5 54.4-54.1c8.4-8.3 8.4-21.9.1-30.3-8.3-8.4-21.9-8.4-30.3-.1l-54.5 54.1z"/></symbol><symbol viewBox="0 0 511.187 511.187" id="delivery" xmlns="http://www.w3.org/2000/svg"><path d="M102.4 370.794c-9.387 0-17.067 7.68-17.067 17.067s7.68 17.068 17.067 17.068 17.067-7.68 17.067-17.067-7.68-17.066-17.067-17.066zm307.2 0c-9.387 0-17.067 7.68-17.067 17.067s7.68 17.068 17.067 17.068 17.067-7.68 17.067-17.067-7.68-17.066-17.067-17.066z"/><path d="M511.147 369.087V245.354c0-14.507-11.947-27.307-27.307-27.307H448l-.853-.853-6.827-8.533-49.493-62.292c-7.68-9.387-17.92-14.507-29.867-14.507h-87.893V96.874c0-18.773-14.507-33.28-32.427-33.28H33.28C14.507 63.593 0 78.1 0 96.873v273.92c0 14.507 11.093 25.6 25.6 25.6h17.67c4.074 29.155 28.752 51.2 59.13 51.2 30.378 0 55.056-22.045 59.13-51.2h188.94c4.075 29.155 28.753 51.2 59.13 51.2s55.057-22.045 59.132-51.2h15.963c14.505 0 27.305-12.8 26.452-27.306zM360.96 148.927c6.827 0 12.8 2.56 17.067 7.68l28.16 34.987H330.24c-3.413 0-5.973-2.56-5.973-5.973V148.93h36.693zM17.067 217.194h119.467c5.12 0 8.533-3.413 8.533-8.533s-3.413-8.532-8.533-8.532H17.067v-25.6H102.4c5.12 0 8.533-3.413 8.533-8.533 0-5.12-3.413-8.533-8.533-8.533H17.067v-60.59c0-9.386 6.827-16.212 16.213-16.212h206.507c9.387 0 16.213 7.68 16.213 16.213v180.054H17.067v-59.733zM102.4 430.527c-23.893 0-42.667-18.773-42.667-42.667s18.773-42.667 42.667-42.667c23.893 0 42.667 18.773 42.667 42.667s-18.774 42.667-42.667 42.667zm153.6-51.2h-94.47c-3.82-27.34-25.76-48.416-53.527-50.936-.203-.018-.41-.028-.613-.045-.7-.056-1.397-.114-2.103-.147-.957-.046-1.92-.072-2.887-.072s-1.93.026-2.887.072c-.706.033-1.404.09-2.103.147-.204.017-.41.027-.613.046-27.767 2.52-49.707 23.598-53.528 50.937H25.6c-5.12 0-8.533-3.413-8.533-8.533v-76.8H256v85.333zm153.6 51.2c-23.893 0-42.667-18.773-42.667-42.667s18.773-42.667 42.667-42.667c23.893 0 42.667 18.773 42.667 42.667s-18.774 42.667-42.667 42.667zm74.24-51.2h-15.11c-3.82-27.34-25.76-48.416-53.527-50.936-.203-.018-.41-.028-.613-.045-.7-.056-1.397-.114-2.103-.147-.957-.046-1.92-.072-2.887-.072s-1.93.026-2.887.072c-.706.033-1.404.09-2.103.147-.204.017-.41.027-.613.046-27.767 2.52-49.707 23.598-53.528 50.937h-77.404v-230.4H307.2v36.693c0 12.8 10.24 23.04 23.04 23.04h87.893l15.36 19.627c3.413 4.267 8.533 6.827 14.507 6.827h35.84c5.12 0 10.24 4.267 10.24 10.24v31.573H358.4c-5.12 0-8.533 3.413-8.533 8.533 0 5.12 3.413 8.533 8.533 8.533h135.68v74.24c0 5.974-4.267 11.094-10.24 11.094z"/></symbol><symbol viewBox="0 0 224.726 224.726" id="equal" xmlns="http://www.w3.org/2000/svg"><path d="M223.612 109.586L190.5 35.752l-.003-.006-.043-.096a4.954 4.954 0 0 0-.39-.7c-.038-.06-.085-.114-.126-.17a5.01 5.01 0 0 0-1.14-1.14c-.05-.036-.095-.076-.146-.11a5.067 5.067 0 0 0-.746-.405c-.074-.033-.15-.057-.227-.086a4.97 4.97 0 0 0-.626-.195c-.088-.02-.175-.042-.264-.058a4.93 4.93 0 0 0-.896-.09h-58.428a15.87 15.87 0 0 0-5.485-7.737v-7.262a5 5 0 0 0-5-5h-9.333a5 5 0 0 0-5 5v7.38a15.866 15.866 0 0 0-5.326 7.62H38.735a5.03 5.03 0 0 0-.896.09c-.09.016-.176.037-.264.058a4.92 4.92 0 0 0-.625.194c-.077.03-.154.053-.228.086-.26.115-.51.248-.746.405-.05.035-.096.075-.145.11a5.07 5.07 0 0 0-.532.44c-.064.06-.124.123-.185.186a4.99 4.99 0 0 0-.424.514c-.043.058-.09.112-.128.17a5.18 5.18 0 0 0-.39.7l-.042.097-.003.006-33.23 74.095A4.974 4.974 0 0 0 0 112.696c0 21.358 17.376 38.734 38.734 38.734s38.734-17.376 38.734-38.734c0-1.06-.334-2.038-.897-2.847L46.457 42.695h50.986a15.878 15.878 0 0 0 5.204 7.286v125.38H58.308a5 5 0 0 0-4.444 2.71L40.11 204.737a5 5 0 0 0 4.444 7.292h135.54a5 5 0 0 0 4.23-7.665L170.76 178.07a5 5 0 0 0-4.443-2.707H121.98V50.1a15.878 15.878 0 0 0 5.363-7.404h50.828l-30.474 67.954c-.008.018-.012.036-.02.054-.023.054-.04.11-.062.165-.09.228-.162.462-.217.698-.014.062-.032.122-.044.184a4.956 4.956 0 0 0-.087.866c0 .027-.008.05-.008.078 0 21.358 17.376 38.734 38.734 38.734s38.734-17.376 38.734-38.734a4.954 4.954 0 0 0-1.114-3.11zm-158.966-1.89H12.822l25.912-57.78 25.912 57.78zm53.58-70.166a5.84 5.84 0 0 1-5.833 5.833 5.84 5.84 0 0 1-5.834-5.833 5.84 5.84 0 0 1 5.833-5.833 5.84 5.84 0 0 1 5.833 5.833zm41.754 70.166l25.913-57.78 25.912 57.78H159.98z"/></symbol><symbol viewBox="0 0 31.996 31.996" id="fav" xmlns="http://www.w3.org/2000/svg"><path d="M29.19 4.762c-3.63-3.596-9.433-3.67-13.192-.288-3.76-3.383-9.56-3.308-13.192.288a9.42 9.42 0 0 0 0 13.415l11.053 10.94a3.042 3.042 0 0 0 4.277 0l11.053-10.94a9.418 9.418 0 0 0 0-13.415zm-1.426 12.003L16.71 27.705a1.01 1.01 0 0 1-1.424 0L4.233 16.766a7.443 7.443 0 0 1 0-10.59c2.844-2.816 7.416-2.915 10.41-.223l1.355 1.22 1.355-1.22c2.994-2.692 7.566-2.594 10.41.222a7.444 7.444 0 0 1 0 10.59z"/><path d="M9.25 6.998h-.005A4.25 4.25 0 0 0 5 11.25a.5.5 0 0 0 1 0A3.25 3.25 0 0 1 9.248 8a.5.5 0 0 0 0-1z"/></symbol><symbol viewBox="0 0 125.3 133.7" id="filter" xmlns="http://www.w3.org/2000/svg"><title>Ресурс 1</title><path class="kst0" d="M47.3 66.8h78M0 66.8h22.3"/><circle class="kst0" cx="34.8" cy="66.8" r="12.5"/><path class="kst0" d="M97.5 16.7h27.8M0 16.7h72.4"/><circle class="kst0" cx="84.9" cy="16.7" r="12.5"/><path class="kst0" d="M80.8 117h44.5M0 117h56.6"/><circle class="kst0" cx="68.2" cy="117" r="12.5"/></symbol><symbol viewBox="0 0 278 278" id="four-square" xmlns="http://www.w3.org/2000/svg"><path d="M0 0h119.054v119.054H0zm158.946 0H278v119.054H158.946zm0 158.946H278V278H158.946zM0 158.946h119.054V278H0z"/></symbol><symbol viewBox="0 0 490.7 490.7" id="idea" xmlns="http://www.w3.org/2000/svg"><path d="M316.953 411.5V430c0 14.7-10.9 26.9-24.9 28.8l-4.5 16.6c-2.6 9-10.9 15.3-19.8 15.3h-44.8c-9.6 0-17.9-6.4-19.8-15.3l-4.5-16.6c-14.1-1.9-24.9-14.1-24.9-28.8v-18.5c0-9.6 7.7-17.9 17.9-17.9h108.1c9.6.6 17.2 8.3 17.2 17.9zm14.2-75.9c-3.2 20.2-20.9 35.3-41.3 35.3h-89c-20.9 0-38.3-14.9-41.3-35.3-3.6-23.3-14.6-45.3-30.8-62.1-28.7-30.1-44.7-69.1-45.4-110-.7-89.6 71.1-162.8 160.1-163.5h1.2c89.7 0 162.7 72.4 162.7 161.4 0 41.7-16.6 82.6-45.4 112.1-16.5 17.1-27.2 38.6-30.8 62.1zm5.3-86.8c22.5-23 35.4-54.8 35.4-87.4 0-69.4-57-125.9-127.1-125.9h-1c-69.4.6-125.4 57.8-124.9 127.6.5 31.8 13.1 62.4 35.5 85.8 21.2 21.9 35.6 50.8 40.3 81.3.5 3.6 3.5 5.2 6.2 5.2h89c3.3 0 5.8-2.7 6.2-5.2 4.7-30.8 18.7-59 40.4-81.4zm-91.1-6.2c-10.5 0-18.9 8.5-18.9 18.9 0 10.5 8.5 18.9 18.9 18.9 10.5 0 18.9-8.5 18.9-18.9s-8.4-18.9-18.9-18.9zm.2-13.5c8.3 0 15-6.6 15.3-14.8l3-105.1c.3-10.3-8-18.7-18.2-18.7-10.3 0-18.5 8.5-18.2 18.7l2.9 105.1c.1 8.2 6.9 14.8 15.2 14.8z"/></symbol><symbol viewBox="0 0 478.2 478.2" id="like" xmlns="http://www.w3.org/2000/svg"><path d="M457.575 325.1c9.8-12.5 14.5-25.9 13.9-39.7-.6-15.2-7.4-27.1-13-34.4 6.5-16.2 9-41.7-12.7-61.5-15.9-14.5-42.9-21-80.3-19.2-26.3 1.2-48.3 6.1-49.2 6.3h-.1c-5 .9-10.3 2-15.7 3.2-.4-6.4.7-22.3 12.5-58.1 14-42.6 13.2-75.2-2.6-97-16.6-22.9-43.1-24.7-50.9-24.7-7.5 0-14.4 3.1-19.3 8.8-11.1 12.9-9.8 36.7-8.4 47.7-13.2 35.4-50.2 122.2-81.5 146.3-.6.4-1.1.9-1.6 1.4-9.2 9.7-15.4 20.2-19.6 29.4-5.9-3.2-12.6-5-19.8-5h-61c-23 0-41.6 18.7-41.6 41.6v162.5c0 23 18.7 41.6 41.6 41.6h61c8.9 0 17.2-2.8 24-7.6l23.5 2.8c3.6.5 67.6 8.6 133.3 7.3 11.9.9 23.1 1.4 33.5 1.4 17.9 0 33.5-1.4 46.5-4.2 30.6-6.5 51.5-19.5 62.1-38.6 8.1-14.6 8.1-29.1 6.8-38.3 19.9-18 23.4-37.9 22.7-51.9-.4-8.1-2.2-15-4.1-20.1zm-409.3 122.2c-8.1 0-14.6-6.6-14.6-14.6V270.1c0-8.1 6.6-14.6 14.6-14.6h61c8.1 0 14.6 6.6 14.6 14.6v162.5c0 8.1-6.6 14.6-14.6 14.6h-61v.1zm383.7-133.9c-4.2 4.4-5 11.1-1.8 16.3 0 .1 4.1 7.1 4.6 16.7.7 13.1-5.6 24.7-18.8 34.6-4.7 3.6-6.6 9.8-4.6 15.4 0 .1 4.3 13.3-2.7 25.8-6.7 12-21.6 20.6-44.2 25.4-18.1 3.9-42.7 4.6-72.9 2.2h-1.4c-64.3 1.4-129.3-7-130-7.1h-.1l-10.1-1.2c.6-2.8.9-5.8.9-8.8V270.1c0-4.3-.7-8.5-1.9-12.4 1.8-6.7 6.8-21.6 18.6-34.3 44.9-35.6 88.8-155.7 90.7-160.9.8-2.1 1-4.4.6-6.7-1.7-11.2-1.1-24.9 1.3-29 5.3.1 19.6 1.6 28.2 13.5 10.2 14.1 9.8 39.3-1.2 72.7-16.8 50.9-18.2 77.7-4.9 89.5 6.6 5.9 15.4 6.2 21.8 3.9 6.1-1.4 11.9-2.6 17.4-3.5.4-.1.9-.2 1.3-.3 30.7-6.7 85.7-10.8 104.8 6.6 16.2 14.8 4.7 34.4 3.4 36.5-3.7 5.6-2.6 12.9 2.4 17.4.1.1 10.6 10 11.1 23.3.4 8.9-3.8 18-12.5 27z"/></symbol><symbol viewBox="0 0 31.668 31.668" id="line" xmlns="http://www.w3.org/2000/svg"><path d="M31.5 0v5H.168V0H31.5zM.168 13.89H31.5v-5H.168v5zm0 8.887H31.5v-5H.168v5zm0 8.89H31.5v-5H.168v5z"/></symbol><symbol viewBox="0 0 45.538 45.538" id="login" xmlns="http://www.w3.org/2000/svg"><path d="M6.524 39.935l-.016.11V43.3H39.03v-2.746l-.032-.413c-.206-2.443-1.27-4.713-2.968-6.634-1.62-1.84-3.825-3.35-6.397-4.35-.84.842-1.81 1.525-2.857 2.033a9.3 9.3 0 0 1-4 .92 9.207 9.207 0 0 1-4.143-.984 10.614 10.614 0 0 1-2.936-2.19c-2.587.936-4.793 2.397-6.397 4.222-1.65 1.873-2.667 4.16-2.778 6.635v.142h.002zM22.777 0c2.984 0 5.666 1.555 7.587 4.047 1.857 2.413 3.016 5.73 3.016 9.38 0 3.652-1.16 6.97-3.016 9.382-1.92 2.507-4.603 4.047-7.587 4.047s-5.682-1.54-7.603-4.048c-1.857-2.414-3.016-5.73-3.016-9.382 0-3.65 1.16-6.968 3.016-9.38C17.094 1.554 19.794 0 22.777 0zm5.825 5.413c-1.508-1.952-3.57-3.175-5.825-3.175-2.27 0-4.333 1.222-5.84 3.175-1.572 2.032-2.54 4.873-2.54 8.016 0 3.142.967 5.983 2.54 8.015 1.507 1.968 3.57 3.174 5.84 3.174 2.254 0 4.317-1.207 5.825-3.175 1.57-2.032 2.54-4.873 2.54-8.016 0-3.145-.968-5.986-2.54-8.017zM4.35 38.935c.302-2.714 1.46-5.19 3.286-7.254 2-2.285 4.81-4.078 8.063-5.11l.713-.222.476.587a8.786 8.786 0 0 0 2.73 2.19 7.12 7.12 0 0 0 3.158.746c1.08 0 2.11-.253 3.047-.697a8.467 8.467 0 0 0 2.667-2.063l.492-.556.714.238c3.222 1.127 6 2.952 8 5.238 1.778 2 2.984 4.365 3.397 6.905h.175v6.602H4.27v-6.602h.08z"/></symbol><symbol viewBox="0 0 856.00001 241.3" id="logo" xmlns="http://www.w3.org/2000/svg"><g class="qast0"><path d="M77.6 70.9c-1.8 0-3.2-1.4-3.2-3.2V4.2c0-1.8 1.4-3.2 3.2-3.2 1.8 0 3.2 1.4 3.2 3.2v63.5c0 1.8-1.5 3.2-3.2 3.2z"/><path class="qast1" d="M77.6 69.9c-2.3 0-4.2-1.4-4.2-3.2V3.2c0-1.8 1.9-3.2 4.2-3.2 2.3 0 4.2 1.4 4.2 3.2v63.5c.1 1.8-1.8 3.2-4.2 3.2zm-25 0c-2.3 0-4.2-1.4-4.2-3.2V3.2c0-1.8 1.9-3.2 4.2-3.2 2.3 0 4.2 1.4 4.2 3.2v63.5c.1 1.8-1.8 3.2-4.2 3.2z"/><path d="M52.3 70.9c-1.8 0-3.2-1.4-3.2-3.2V4.2c0-1.8 1.4-3.2 3.2-3.2 1.8 0 3.2 1.4 3.2 3.2v63.5c-.1 1.8-1.5 3.2-3.2 3.2z"/><path class="qast1" d="M64.9 156.8c-1.3 0-2.5-.5-3.4-1.4l-38-38.4c-.9-.9-1.4-2.1-1.4-3.4V5.3c0-2.6 2-5 4.6-5.1 2.8-.1 5.1 2.1 5.1 4.8v104.4c0 1.4.6 2.8 1.6 3.9L61 141.2c2.2 2.2 5.8 2.2 8 0l27.6-27.9c1-1 1.6-2.4 1.6-3.9V5.3c0-2.6 2-5 4.6-5.1 2.8-.1 5.1 2.1 5.1 4.8v108.6c0 1.3-.5 2.5-1.4 3.4l-38 38.4c-1.1.9-2.3 1.4-3.6 1.4z"/><path class="qast1" d="M103.1 241.3c-15.6 0-34.2-7.6-40.3-10.3-6.3 2.6-25.7 10-40.8 10-12.8 0-22-8.5-22-20.2v-58.3c0-13.5 3.5-16.3 27.5-29.2 2.4-1.3 4.8 0 6.5 2 1.8 2.1 3.5 3.6-2 6.5-22.4 12-22.4 12.5-22.4 20.7v58.3c0 7.3 6.2 10.5 12.3 10.5 15.9 0 38.7-9.9 38.9-10 1.3-.6 2.8-.5 4 .1.3.1 25.9 12.2 42.2 10 9.6-1.3 13-4.6 13-12.6v-56.2c0-8.5 0-8.9-21.3-20.1l-1-.5c-5.9-3.1-4-4.5-2-6.5 1.8-2 4.2-3.3 6.5-2l1 .5c21.4 11.3 26.5 13.9 26.5 28.7v56.2c0 19.3-16.1 21.5-21.4 22.2-1.6.1-3.4.2-5.2.2z"/><path class="qast1" d="M58.3 231.9c-1.4 0-2.4-1.6-3-3-.8-1.9-.7-5 1.2-5.8 5-2.1 11.2-4.5 17-8.1 14-8.6 28.5-17.5 40.6-11.2 1.8 1 2.5 3.2 1.6 5-1 1.8-3.2 2.5-5 1.6-8.3-4.4-20.6 4.6-32.9 12.1-6 3.7-11.8 6.7-17.3 9-.5.3-1.7.4-2.2.4zM42.8 204c-.7 0-1.5-.3-2.1-.8-4-3.5-6.8-4.4-9.9-4.7-3.5-.3-6.6 0-10.5 1.1-1.7.5-3.5-.5-3.9-2.2-.5-1.7.5-3.5 2.2-3.9 4.6-1.3 8.6-1.7 12.8-1.3 5.1.5 9 2.3 13.5 6.2 1.3 1.2 1.5 3.2.3 4.5-.6.7-1.5 1.1-2.4 1.1z"/><path d="M268.7 54.5l3.5 10.5h11l-8.9 6.6 3.4 10.5-9-6.5-8.9 6.5 3.4-10.5-9-6.6h11.1zm58 0l3.5 10.5h11.1l-9 6.6 3.4 10.5-9-6.5-8.9 6.5 3.4-10.5-9-6.6h11.1zm58.1 0l3.4 10.5h11.1l-9 6.6 3.4 10.5-8.9-6.5-9 6.5 3.4-10.5-8.9-6.6h11zm58 0l3.4 10.5h11.1l-9 6.6 3.4 10.5-8.9-6.5-9 6.5 3.4-10.5-8.9-6.6h11zm58 0l3.4 10.5h11.1l-9 6.6 3.4 10.5-8.9-6.5-9 6.5 3.4-10.5-8.9-6.6h11z"/><path d="M232.2 156.3s-8.3-.3-9.1-.3c-1.6 0-3.1 0-4.4.1-1.9.1-7.9.2-7.9.2l-26.7-32.2h-1.7v11.2c0 7.5.2 12.4.6 14.6.2.9.7 1.5 1.7 1.7 2.4.5 6.2.5 6.2.5v4.1s-8.8-.3-15.6-.3c-7 0-15.6.3-15.6.3v-4.1s4.3 0 6.2-.5c.9-.3 1.5-.8 1.7-1.7.4-2.3.6-7.1.6-14.6v-25c0-7.5-.2-12.4-.6-14.6-.2-.9-.7-1.5-1.7-1.7-2.2-.5-6.2-.5-6.2-.5v-4.1s8.7.3 15.6.3c7.1 0 15.6-.3 15.6-.3v4.1s-4.6.1-6.2.5c-1 .3-1.5.8-1.7 1.7-.4 2.3-.6 7.1-.6 14.6V121h.4s5.5-4.7 10.1-9.2c2.8-2.8 4.9-4.8 6-6.1 3.2-3.4 5.4-5.8 6.4-7.2 2.9-3.7 4.6-5.2 4.7-8.9 2.7.1 5.3.2 7.7.2 2.2 0 10.2-.3 10.2-.3v4s-5.8.1-8.3 1.3c-1.4.6-3.5 2.1-6.5 4.5-3.3 2.7-7.5 6.4-12.7 11.2-1.9 1.8-4.5 4.2-7.8 7.2l28.1 28c6.3 6.6 11.4 6.7 11.4 6.7v3.9zm65.1-.1s-9.9-.2-12.6-.2c-5.6 0-12.4.2-12.4.2v-3.3s3.7 0 5-.4c.8-.2 1.2-.7 1.3-1.4.3-1.8.5-5.7.5-11.7v-27.9l-24.5 44.6c-2.7-.1-5.2-.2-7.5-.2-1.5 0-10.6.2-10.6.2V153s2.9.2 5-.4c.8-.2 1.2-.7 1.3-1.4.3-1.8.5-5.7.5-11.7v-20c0-6-.2-9.9-.5-11.7-.1-.7-.6-1.2-1.3-1.4-1.1-.3-5-.4-5-.4v-3.3s8.5.2 12.5.2c2.7 0 12.4-.2 12.4-.2v3.3s-3.6 0-5 .4c-.8.2-1.2.7-1.3 1.4-.3 1.8-.5 5.7-.5 11.7v28.4l24.5-45.2c3.4.2 5.8.2 7 .2.9 0 11.2-.2 11.2-.2v3.3s-4.1.1-5 .4c-.8.2-1.2.7-1.3 1.4-.3 1.8-.5 5.7-.5 11.7v20c0 6 .2 9.9.5 11.7.1.7.6 1.2 1.3 1.4 1.8.4 5 .4 5 .4zm56-47.5l-.1 6.7h-3.3s-.3-5.5-.5-6c-.3-1-1.2-1.6-2.5-1.8-.5-.1-3-.1-7.4-.1h-5.3c-.1.9-.1 4.4-.1 10.5v21.4c0 6 .2 9.9.5 11.7.1.7.6 1.2 1.3 1.4 1.7.5 5 .4 5 .4v3.3s-7-.2-12.5-.2c-5.6 0-12.4.2-12.4.2v-3.3s3.8-.1 5-.4c.8-.2 1.2-.7 1.3-1.4.3-1.8.5-5.7.5-11.7V118c0-6.2 0-9.7-.1-10.5h-5.6c-4.7 0-7.4.1-8.2.4-.4.2-.7.3-.9.6-.2.4-.4 1.2-.6 2.4-.2 1.3-.4 4.5-.4 4.5h-3.3l-.1-6.8c0-1.8-.5-6-.5-6s7.5.4 17.2.4h15.9c9 0 17.3-.4 17.3-.4s-.2 4.1-.2 6.1zm64.7 47.5s-10.1-.2-12.3-.2c-5.1 0-12.6.2-12.6.2v-3.3s3.6.1 5-.4c.8-.2 1.2-.7 1.3-1.4.3-1.8.5-5.7.5-11.7v-8.7c-3.5 1.2-7.7 3.3-15.2 3.3-6.1 0-10-1.8-12.8-3.8-5.1-3.6-4.7-5.9-4.6-14.4 0-4.4-.2-7-.7-7.9-.4-.8-1.6-1.3-3.7-1.7l-2.4-.3v-3.2l12.2.2c2.9 0 12.7-.2 12.7-.2v3.2s-3.6.2-5.1.9c-.5.3-.9.8-1.3 1.6-.3.9-.5 3.5-.5 7.8s.5 6.5.8 7.7c.9 3.4 6.8 5.7 9.9 5.5 3.6-.2 7.5-1 10.6-3.4v-6.6c0-6-.2-9.9-.5-11.7-.1-.7-.6-1.2-1.3-1.4-1.3-.4-5-.4-5-.4v-3.3l12.3.2c2.9 0 12.7-.2 12.7-.2v3.3s-4 .1-5 .4c-.8.2-1.2.7-1.3 1.4-.3 1.8-.5 5.7-.5 11.7v20c0 6 .2 9.9.5 11.7.1.7.6 1.2 1.3 1.4 1.6.4 5 .4 5 .4zm49.3 0l-29-.2c-4.8 0-10.5.2-10.5.2v-1.8s2.7-1.2 3.3-2.3c.2-.5.4-2.2.4-5l.1-8.5v-19.1c0-6-.2-9.9-.5-11.7-.1-.7-.6-1.2-1.3-1.4-1.5-.4-5-.4-5-.4v-3.3s7.1.2 12.6.2c4.9 0 28.5-.2 28.5-.2l-.5 4.5c-.2 1.3-.3 2.5-.4 3.4l-.3 3.9h-3s.1-5.3-.6-6.2c-.3-.4-1.7-.6-4.2-.8-2.5-.2-4.7-.3-6.7-.3-2.3 0-4.6.1-6.9.3-.3 2.6-.4 6.3-.4 11v7.8c2.1.1 3.7.2 5 .2h5.1c2.4 0 3.8-.2 4.1-.6.7-.8.8-5.5.8-5.5h3.2s-.2 5.8-.2 8.1c0 2.5.2 8.7.2 8.7h-3.4s.3-4.3-.6-5.5c-.4-.5-1.7-.9-3.8-1.1-1.6-.1-3.3-.2-5.1-.2-1.9 0-3.7.1-5.3.2v11.5c0 3.3.1 6.5.2 9.6h5.3c7.6 0 12.3-.3 14.1-.9.3-.1.5-.2.6-.4 1.2-1.7 1.7-7.4 1.7-7.4h3.2l-.6 6.4zm68.7 0s-7-.2-12.5-.2c-5.6 0-12.5.2-12.5.2v-3.3s3.3 0 5-.4c.8-.2 1.2-.7 1.3-1.4.3-1.8.5-5.7.5-11.7v-9.1c-1.3-.1-5.6-.2-12.7-.2-6.6 0-10.9.1-13 .2v9.1c0 6 .2 9.9.5 11.7.1.7.6 1.2 1.3 1.4 1.6.4 5 .4 5 .4v3.3s-7-.2-12.5-.2c-5.6 0-12.5.2-12.5.2V153s3.8-.1 5-.4c.8-.2 1.2-.7 1.3-1.4.3-1.8.5-5.7.5-11.7v-20c0-6-.2-9.9-.5-11.7-.1-.7-.6-1.2-1.3-1.4-1.5-.4-5-.4-5-.4v-3.3s6.9.2 12.5.2c5.7 0 12.4-.2 12.4-.2v3.3s-3.7.1-5 .4c-.8.2-1.2.7-1.3 1.4-.3 1.8-.5 5.7-.5 11.7v6.2c2.8.1 6.6.2 11.5.2 7.6 0 12.4-.1 14.3-.2v-6.2c0-6-.2-9.9-.5-11.7-.1-.7-.6-1.2-1.3-1.4-1.5-.3-5-.4-5-.4v-3.3s7 .2 12.5.2c5.7 0 12.5-.2 12.5-.2v3.3s-3.6 0-5 .4c-.8.2-1.2.7-1.3 1.4-.3 1.8-.5 5.7-.5 11.7v20c0 6 .2 9.9.5 11.7.1.7.6 1.2 1.3 1.4 1.6.4 5 .4 5 .4zm70.4-59.3l-.1 8.3h-4.1s-.3-6.8-.5-7.5c-.4-1.3-1.4-2-3.1-2.2-.7-.1-3.7-.1-9.2-.1h-6.6c-.1 1.1-.1 5.5-.1 13.1v26.8c0 7.5.2 12.4.6 14.6.2.9.7 1.5 1.7 1.7 1.8.4 6.2.5 6.2.5v4.1s-8.8-.3-15.6-.3c-7 0-15.6.3-15.6.3v-4.1s4 0 6.3-.5c.9-.3 1.5-.8 1.7-1.7.4-2.3.6-7.1.6-14.6v-26.8c0-7.8 0-12.1-.1-13.1h-7c-5.9 0-9.3.2-10.3.5-.5.2-.9.4-1.1.7-.3.5-.5 1.5-.7 3-.2 1.7-.4 5.6-.4 5.6h-4.1l-.1-8.6c0-2.3-.6-7.5-.6-7.5s9.4.5 21.6.5h19.9c11.2 0 21.6-.5 21.6-.5s-.8 5.3-.9 7.8zm65.7 59.3s-9.7-.2-10.9-.2c-4.8 0-13.8.2-13.8.2V153l3.8-.2c1.4-.1 2.2-.6 2.2-1.5 0-.5-.4-1.7-1.1-3.5l-3.2-8c-3.6 0-7.3-.1-11.1-.1-2 0-5.1 0-9.1.1l-1.7 4.6c-1.3 3.5-2 5.7-2 6.6 0 1 .6 1.5 1.8 1.7.7.1 4.4.3 4.4.3v3.2s-8.4-.2-9.8-.2c-1.1 0-8.4.2-8.4.2V153s4 .2 5.4-1.6c.6-.9 2.9-6.1 6.9-15.7l10.3-24.7c.8-1.9 1.9-4.8 3.5-8.6h5.6l20.8 47.1c.8 1.8 1.5 2.8 2.2 3 2 .6 4.1.5 4.1.5v3.2zm-24.9-20.7l-8.4-19.8-8.1 19.8c2.1.1 4.9.1 8.4.1 3.4.1 6.1 0 8.1-.1zm92.1 20.7s-9.9-.2-12.6-.2c-5.6 0-12.4.2-12.4.2V153s4.7-.3 5-.4c.8-.2 1.2-.7 1.3-1.4.3-1.8.5-5.7.5-11.7v-27.9l-24.5 44.6c-2.7-.1-5.2-.2-7.5-.2-1.5 0-10.6.2-10.6.2V153s3.1 0 5-.4c.8-.2 1.2-.7 1.3-1.4.3-1.8.5-5.7.5-11.7v-20c0-6-.2-9.9-.5-11.7-.1-.7-.6-1.2-1.3-1.4-.4-.1-5-.4-5-.4v-3.3s8.5.2 12.5.2c1.7 0 5.5-.1 5.5-.1l.1 45 24.5-45.2c3.4.2 5.8.2 7 .2.9 0 11.2-.2 11.2-.2v3.3s-4.6.3-5 .4c-.8.2-1.2.7-1.3 1.4-.3 1.8-.5 5.7-.5 11.7v20c0 6 .2 9.9.5 11.7.1.7.6 1.2 1.3 1.4 1.7.4 5 .4 5 .4zm-20-63l2 .7c-1 5.6-4.9 9.5-9.3 10.6-2.9.7-4.5.8-7 .3-1.3-.3-3-.7-3.9-1.5l.3-3 .5-5 2.3.1c0 3 3.7 4 6.3 4 1.6 0 3.4-.4 5-1.4 2.9-1.8 3.8-4.8 3.8-4.8zm102.1 63s-7-.2-12.5-.2c-5.6 0-12.4.2-12.4.2V153s3.4 0 5-.4c.8-.2 1.2-.7 1.3-1.4.3-1.8.5-5.7.5-11.7V114l-8.8 17.3c-.5 1-2.2 4.5-5.1 10.6l-7.2 15.1h-2.6c-1.4-3.1-3.2-7.1-5.5-11.8l-5.5-11.2-10.3-20.6v26.2c0 6 .2 9.9.5 11.7.1.7.6 1.2 1.3 1.4.4.1 5 .4 5 .4v3.3s-6.2-.2-8.8-.2c-3 0-9.5.2-9.5.2V153s3.6 0 5-.4c.8-.2 1.2-.7 1.3-1.4.3-1.8.5-5.7.5-11.7v-20c0-6-.2-9.9-.5-11.7-.1-.7-.6-1.2-1.3-1.4-1.4-.3-5-.4-5-.4v-3.3s6.6.2 10.7.2c3.2 0 6-.1 8.4-.2.9 1.9 2.1 4.6 3.7 8.1l2.5 5.2 12.5 25.1 6-11.7 9.4-19.3c1.1-2.3 2.2-4.8 3.2-7.4 3 .2 4.9.2 6 .2 5.1 0 12.2-.2 12.2-.2v3.3s-2.9-.1-5 .4c-.8.2-1.2.7-1.3 1.4-.3 1.8-.5 5.7-.5 11.7v20c0 6 .2 9.9.5 11.7.1.7.6 1.2 1.3 1.4 1.7.4 5 .4 5 .4zm-271.6 14.1c1.1-.2 3.2-.4 5.2-.4 2.6 0 4.3.3 5.6 1.2 1.2.7 2 2 2 3.7 0 1.8-1.1 3.4-3.2 4.2v.1c2.1.5 3.9 2.1 3.9 4.8 0 1.7-.8 3.1-1.9 4.1-1.4 1.2-3.7 1.8-7.3 1.8-2 0-3.5-.1-4.4-.3v-19.2zm3.5 7.7h1.8c2.5 0 3.9-1.2 3.9-2.8 0-1.9-1.4-2.7-3.7-2.7-1 0-1.7.1-2 .1zm0 8.9c.5.1 1.1.1 1.9.1 2.3 0 4.3-.8 4.3-3.2 0-2.3-2-3.2-4.5-3.2h-1.8v6.3zm32.8 2.1c-.8.4-2.7.9-5.1.9-6.2 0-10-3.9-10-9.9 0-6.4 4.5-10.3 10.5-10.3 2.3 0 4 .5 4.7.9l-.8 2.8c-.9-.4-2.2-.8-3.8-.8-4 0-6.8 2.5-6.8 7.2 0 4.3 2.5 7 6.8 7 1.4 0 2.9-.3 3.9-.7zm19.7-8.1h-7.4v5.7h8.2v2.9h-11.8V170h11.4v2.9h-7.8v5h7.4zm-9.9-13.9c0-1 .8-1.8 1.7-1.8 1 0 1.7.8 1.7 1.8 0 .9-.7 1.7-1.7 1.7-1 .1-1.7-.7-1.7-1.7zm5.7 0c0-1 .7-1.8 1.7-1.8s1.7.8 1.7 1.8c0 .9-.7 1.7-1.7 1.7-1 .1-1.7-.7-1.7-1.7zm40.2 3v16.7l1.9.1-.2 7.6h-2.7l-.2-4.8h-11.9l-.2 4.8h-2.7l-.2-7.6 1.6-.1c.8-1.4 1.4-2.8 1.9-4.3.6-2.1.8-4.5.8-7.3V170zm-8.6 6c0 2.7-.3 5.1-.9 7.1-.4 1.3-.9 2.5-1.4 3.5h7.5v-13.7h-5.1v3.1zm33.4-6v19.5H663v-16.6h-5.3v5.2c0 4.7-.4 8.9-3.3 10.7-.9.5-2.1.9-3.5.9l-.5-2.9c.9-.1 1.7-.6 2.1-1 1.4-1.4 1.6-4.5 1.6-7.5V170zm8.1 19.5c.4-.6.7-1.3.9-2 .8-2.2 1.3-4.7 2.8-6.2.4-.4 1-.8 1.6-1v-.1c-2.3-.4-4.2-2-4.2-4.8 0-1.8.8-3.2 1.9-4.1 1.4-1.1 3.5-1.5 6-1.5 1.9 0 3.8.2 5.2.4v19.3h-3.5v-8H684c-1 0-1.8.3-2.4.8-1.3 1.3-1.8 3.9-2.4 5.7-.2.5-.4 1-.7 1.5zm10.8-16.8c-.4-.1-1.1-.2-2.1-.2-2.2 0-4 .9-4 3.2 0 2.1 1.8 3.2 4.2 3.2.7 0 1.4 0 1.8-.1v-6.1zm28.6-2.7v8.4h.6l6-8.4h4.3l-7.1 8.8c2.8.5 4 2.4 4.9 4.8.7 2.1 1.3 4 2.2 5.9h-3.8c-.7-1.3-1.1-3-1.6-4.4-.8-2.4-1.8-4.1-4.6-4.1h-.8v8.5h-3.5V170zm21.5 0l3.3 7.6c.5 1.3 1 2.4 1.4 3.6h.1c.3-.9.6-2.1 1.1-3.7l2.5-7.6h3.8l-3.9 9.8c-1.1 2.8-2.3 5.8-3.8 7.6-1.3 1.6-2.8 2.5-4.8 2.5-.9 0-1.4-.1-1.8-.3l.3-2.9c.3.1.7.1 1.2.1 1.7 0 2.7-1.4 3.2-2.5.2-.4.1-.6-.1-1l-6.6-13.4h4.1zm30.6 19.5l-2.1-3.9c-.8-1.5-1.4-2.6-2-3.7h-.1c-.5 1.1-1 2.2-1.8 3.7l-1.9 3.9h-4.1l5.8-9.9-5.6-9.7h4.1l2.1 4c.6 1.2 1.1 2.2 1.6 3.3h.1c.5-1.2.9-2.1 1.5-3.3l2.1-4h4.1l-5.7 9.5 5.9 10h-4zm16.1-19.5v7.8h8.3V170h3.6v19.5h-3.6v-8.6h-8.3v8.6h-3.6V170zm24.9 0v6.9c0 3.1-.1 6-.2 8.6h.1c1-2.2 2.3-4.6 3.5-6.8l5.2-8.8h3.6v19.5h-3.3v-6.9c0-3.1.1-5.6.3-8.1h-.1c-.9 2.2-2.2 4.7-3.4 6.8l-5 8.3h-4V170z" class="qast1"/><g class="qast1"><path class="qast5" d="M840.4 70.5c1.8 0 3.5.3 5.1 1 1.6.7 3 1.6 4.2 2.8 1.2 1.2 2.1 2.6 2.8 4.2.7 1.6 1 3.3 1 5.1 0 1.8-.3 3.5-1 5.1-.7 1.6-1.6 3-2.8 4.2-1.2 1.2-2.6 2.1-4.2 2.8-1.6.7-3.3 1-5.1 1-1.8 0-3.5-.3-5.1-1-1.6-.7-3-1.6-4.2-2.8-1.2-1.2-2.1-2.6-2.8-4.2-.7-1.6-1-3.3-1-5.1 0-1.8.3-3.5 1-5.1.7-1.6 1.6-3 2.8-4.2 1.2-1.2 2.6-2.1 4.2-2.8 1.6-.7 3.4-1 5.1-1m0-2.6c-8.6 0-15.6 7-15.6 15.6s7 15.6 15.6 15.6 15.6-7 15.6-15.6-6.9-15.6-15.6-15.6z"/><path class="qast5" d="M833.7 75.4h2.6v16.7h-2.6zm13.9 16.7h-3.3s-2.8-5.3-4.1-6.3c-1.1-.8-2.2-.8-2.2-.8l1.1-1.1s2.8.6 3.8 1.4c1.6 1.3 4.7 6.8 4.7 6.8z"/><path class="qast5" d="M833.6 75.4h7.1v2.3h-7.1zm0 7.4h6.2v2.3h-6.2z"/><path class="qast5" d="M839.8 85v-2.3c2 0 3.9-.4 3.9-2.6 0-1.4-1-2.6-3.1-2.6l.1-2.3c1.9 0 3.3.4 4.4 1.3 1 .8 1.5 2.1 1.5 3.5 0 1.6-.7 2.9-2.1 3.7-1.2 1-2.8 1.3-4.7 1.3z"/></g></g></symbol><symbol viewBox="0 0 482.6 482.6" id="phone" xmlns="http://www.w3.org/2000/svg"><path d="M98.34 320.8c47.6 56.9 104.9 101.7 170.3 133.4 24.9 11.8 58.2 25.8 95.3 28.2 2.3.1 4.5.2 6.8.2 24.9 0 44.9-8.6 61.2-26.3.1-.1.3-.3.4-.5 5.8-7 12.4-13.3 19.3-20 4.7-4.5 9.5-9.2 14.1-14 21.3-22.2 21.3-50.4-.2-71.9l-60.1-60.1c-10.2-10.6-22.4-16.2-35.2-16.2-12.8 0-25.1 5.6-35.6 16.1l-35.8 35.8c-3.3-1.9-6.7-3.6-9.9-5.2-4-2-7.7-3.9-11-6-32.6-20.7-62.2-47.7-90.5-82.4-14.3-18.1-23.9-33.3-30.6-48.8 9.4-8.5 18.2-17.4 26.7-26.1 3-3.1 6.1-6.2 9.2-9.3 10.8-10.8 16.6-23.3 16.6-36s-5.7-25.2-16.6-36l-29.8-29.8c-3.5-3.5-6.8-6.9-10.2-10.4-6.6-6.8-13.5-13.8-20.3-20.1C122.14 5.3 110.04 0 97.24 0c-12.7 0-24.9 5.3-35.6 15.5l-37.4 37.4C10.64 66.5 2.94 83 1.34 102.1c-1.9 23.9 2.5 49.3 13.9 80 17.5 47.5 43.9 91.6 83.1 138.7zm-72.6-216.6c1.2-13.3 6.3-24.4 15.9-34L78.84 33c5.8-5.6 12.2-8.5 18.4-8.5 6.1 0 12.3 2.9 18 8.7 6.7 6.2 13 12.7 19.8 19.6 3.4 3.5 6.9 7 10.4 10.6l29.8 29.8c6.2 6.2 9.4 12.5 9.4 18.7s-3.2 12.5-9.4 18.7c-3.1 3.1-6.2 6.3-9.3 9.4-9.3 9.4-18 18.3-27.6 26.8l-.5.5c-8.3 8.3-7 16.2-5 22.2.1.3.2.5.3.8 7.7 18.5 18.4 36.1 35.1 57.1 30 37 61.6 65.7 96.4 87.8 4.3 2.8 8.9 5 13.2 7.2 4 2 7.7 3.9 11 6 .4.2.7.4 1.1.6 3.3 1.7 6.5 2.5 9.7 2.5 8 0 13.2-5.1 14.9-6.8l37.4-37.4c5.8-5.8 12.1-8.9 18.3-8.9 7.6 0 13.8 4.7 17.7 8.9l60.3 60.2c12 12 11.9 25-.3 37.7-4.2 4.5-8.6 8.8-13.3 13.3-7 6.8-14.3 13.8-20.9 21.7-11.5 12.4-25.2 18.2-42.9 18.2-1.7 0-3.5-.1-5.2-.2-32.8-2.1-63.3-14.9-86.2-25.8-62.2-30.1-116.8-72.8-162.1-127-37.3-44.9-62.4-86.7-79-131.5-10.3-27.5-14.2-49.6-12.6-69.7z"/></symbol><symbol viewBox="0 0 59.997 59.997" id="price" xmlns="http://www.w3.org/2000/svg"><path d="M59.206.293a1 1 0 0 0-1.414 0L54.084 4H30.802L1.532 33.51c-.667.667-1.034 1.554-1.034 2.496s.367 1.83 1.034 2.495l20.466 20.467a3.536 3.536 0 0 0 5-.01l28.5-29.27V5.413l3.707-3.707a1 1 0 0 0 0-1.414zm-35.794 57.26L2.946 37.087a1.523 1.523 0 0 1 .003-2.165L11.8 26l22.544 22.545-8.77 9.008a1.53 1.53 0 0 1-2.162 0zM53.5 28.873l-17.76 18.24-22.532-22.534L31.635 6h20.45l-4.833 4.833A4.97 4.97 0 0 0 44.5 10c-2.758 0-5 2.243-5 5s2.242 5 5 5 5-2.243 5-5a4.97 4.97 0 0 0-.834-2.753L53.5 7.414v21.46zM47.5 15c0 1.654-1.347 3-3 3s-3-1.346-3-3 1.345-3 3-3c.46 0 .893.114 1.284.3l-1.992 1.993a1 1 0 0 0 1.414 1.414l1.992-1.992c.187.39.3.823.3 1.285z"/></symbol><symbol viewBox="0 0 512 512" id="register" xmlns="http://www.w3.org/2000/svg"><path d="M124.1 133.6h152.4c11.3 0 20.4-9.1 20.4-20.4 0-11.3-9.1-20.4-20.4-20.4H124.1c-11.3 0-20.4 9.1-20.4 20.4 0 11.3 9.1 20.4 20.4 20.4zm172.8 65.8c0-11.3-9.1-20.4-20.4-20.4H124.1c-11.3 0-20.4 9.1-20.4 20.4 0 11.3 9.1 20.4 20.4 20.4h152.4c11.3 0 20.4-9.1 20.4-20.4z"/><path d="M482.3 200.3c-28.4-2.2-60.8 12.1-92.8 33.8V31.2c0-11.3-9.1-20.4-20.4-20.4H31.5c-11.3 0-20.4 9.1-20.4 20.4v449.2c0 11.3 9.1 20.4 20.4 20.4H369c11.3 0 20.4-9.1 20.4-20.4V286.1c33.8-27.8 66.2-46.8 89.7-45 11.3.9 21.1-7.6 21.9-18.8.9-11.3-7.5-21.1-18.7-22zM348.6 460H52V51.7h296.7v214C303.8 304.1 264 350 243.2 375.3L214 348.8c-8.4-7.6-21.3-7-28.8 1.4-7.6 8.3-7 21.3 1.4 28.8l45.3 41.1c4.8 5 19.4 10 29.9-2.6 23.2-28 54.3-63.1 86.9-94.7V460z"/></symbol><symbol viewBox="0 0 129 129" id="search" xmlns="http://www.w3.org/2000/svg"><path d="M51.6 96.7c11 0 21-3.9 28.8-10.5l35 35c.8.8 1.8 1.2 2.9 1.2s2.1-.4 2.9-1.2c1.6-1.6 1.6-4.2 0-5.8l-35-35c6.5-7.8 10.5-17.9 10.5-28.8 0-24.9-20.2-45.1-45.1-45.1-24.8 0-45.1 20.3-45.1 45.1 0 24.9 20.3 45.1 45.1 45.1zm0-82c20.4 0 36.9 16.6 36.9 36.9C88.5 72 72 88.5 51.6 88.5S14.7 71.9 14.7 51.6c0-20.3 16.6-36.9 36.9-36.9z"/></symbol><symbol viewBox="0 0 512.001 512.001" id="star" xmlns="http://www.w3.org/2000/svg"><path d="M501.936 228.34c19.718-19.22 8.822-52.727-18.417-56.685L347.097 151.83a3.487 3.487 0 0 1-2.623-1.904L287.115 33.71c-13.679-27.72-53.231-27.71-66.905 0l-57.36 116.214a3.477 3.477 0 0 1-2.62 1.904l-128.254 18.64c-30.592 4.446-42.802 42.067-20.674 63.635l92.806 90.46c.82.8 1.195 1.952 1 3.08L83.2 455.384c-5.226 30.467 26.78 53.71 54.13 39.328 123.777-65.073 115.6-61.545 117.952-60.308l114.713 60.31c27.345 14.378 59.356-8.86 54.13-39.328l-21.907-127.74a3.476 3.476 0 0 1 1-3.08l98.718-96.223zM368.88 333.363l21.906 127.74c.495 2.887-2.47 5.025-5.05 3.67l-114.713-60.31a37.29 37.29 0 0 0-34.72 0l-114.714 60.31c-2.582 1.356-5.546-.785-5.05-3.67l21.906-127.74a37.3 37.3 0 0 0-10.73-33.022L34.91 209.88c-2.088-2.036-.97-5.517 1.93-5.937l128.254-18.64a37.305 37.305 0 0 0 28.088-20.406L250.54 48.68c1.29-2.615 4.948-2.625 6.243 0l57.36 116.216a37.3 37.3 0 0 0 28.088 20.407l135.233 19.654-97.856 95.383a37.304 37.304 0 0 0-10.728 33.022z"/><path d="M174.935 251.898c-6.69-6.52-17.398-6.384-23.917.307-6.52 6.69-6.383 17.397.306 23.916a71.11 71.11 0 0 1 20.46 62.957l-5.72 33.364c-1.578 9.207 4.606 17.95 13.813 19.53 9.194 1.58 17.948-4.6 19.528-13.813l5.72-33.362a104.934 104.934 0 0 0-30.19-92.897z"/></symbol></svg>