<?xml version="1.0" encoding="utf-8"?><svg xmlns="http://www.w3.org/2000/svg" xmlns:xlink="http://www.w3.org/1999/xlink"><symbol viewBox="0 0 386.257 386.257" id="arrow-down" xmlns="http://www.w3.org/2000/svg"><path d="M0 96.879l193.129 192.5 193.128-192.5z"/></symbol><symbol viewBox="0 0 386.258 386.258" id="arrow-left" xmlns="http://www.w3.org/2000/svg"><path d="M96.879 193.129l192.5 193.129V0z"/></symbol><symbol viewBox="0 0 19.25 19.25" id="basket" xmlns="http://www.w3.org/2000/svg"><path d="M19.006 2.97a1.003 1.003 0 0 0-.756-.345H4.431l-.195-1.164A1 1 0 0 0 3.25.625H1a1 1 0 1 0 0 2h1.403l1.86 11.164c.008.045.031.082.045.124.016.053.029.103.054.151a.982.982 0 0 0 .12.179c.031.039.059.078.095.112a.96.96 0 0 0 .193.13c.038.021.071.049.112.065a.97.97 0 0 0 .367.075H16.25a1 1 0 1 0 0-2H6.097l-.166-1H17.25a1 1 0 0 0 .99-.858l1-7a1.002 1.002 0 0 0-.234-.797zm-1.909 1.655l-.285 2H13.25v-2h3.847zm-4.847 0v2h-3v-2h3zm0 3v2h-3v-2h3zm-4-3v2h-3a.481.481 0 0 0-.148.03l-.338-2.03H8.25zm-2.986 3H8.25v2H5.597l-.333-2zm7.986 2v-2h3.418l-.285 2H13.25z"/><circle cx="6.75" cy="17.125" r="1.5"/><circle cx="15.75" cy="17.125" r="1.5"/></symbol><symbol viewBox="0 0 357 357" id="close" xmlns="http://www.w3.org/2000/svg"><path d="M357 35.7L321.3 0 178.5 142.8 35.7 0 0 35.7l142.8 142.8L0 321.3 35.7 357l142.8-142.8L321.3 357l35.7-35.7-142.8-142.8z"/></symbol><symbol viewBox="0 0 30 29" id="customer-service" xmlns="http://www.w3.org/2000/svg"><path d="M23.876 2.545h-.005a.475.475 0 0 0-.475.477.479.479 0 0 0 .956 0 .477.477 0 0 0-.476-.477zm-6.864 19.48l-4.538-1.891a.539.539 0 0 1-.332-.499v-.962l.848-.472a2.509 2.509 0 0 0 1.282-1.967l.001-.021h.443c.824 0 1.494-.67 1.494-1.494v-.918c.134-.323.509-1.357.509-2.783 0-1.97-.772-3.83-2.173-5.235a7.498 7.498 0 0 0-1.801-1.333c-.023-1.614-1.639-2.922-3.623-2.922-1.983 0-3.599 1.308-3.622 2.922a7.495 7.495 0 0 0-1.8 1.333 7.371 7.371 0 0 0-2.174 5.235c0 1.426.375 2.46.508 2.783v.918c0 .824.67 1.494 1.494 1.494h.443l.002.02a2.509 2.509 0 0 0 1.281 1.968l.849.472v.962c0 .219-.13.415-.333.499l-4.538 1.89A1.997 1.997 0 0 0 0 23.875v3.05c0 .824.67 1.494 1.494 1.494H16.75c.824 0 1.494-.67 1.494-1.493v-3.052c0-.81-.484-1.536-1.233-1.848zm-1.755-7.306a.54.54 0 0 1-.54.54h-.357l.19-2.097h.166a.54.54 0 0 1 .54.54v1.017zM9.122 2.482c1.25 0 2.3.646 2.59 1.516a7.815 7.815 0 0 0-2.59-.435c-.9 0-1.773.149-2.59.435.29-.87 1.341-1.516 2.59-1.516zM3.528 15.259a.541.541 0 0 1-.54-.54v-1.017a.54.54 0 0 1 .54-.54h.166l.19 2.097h-.356zm2.19 2.109a1.556 1.556 0 0 1-.795-1.22l-.363-3.993a15.547 15.547 0 0 0 2.996-.322c2.615-.542 4.748-1.724 6.17-3.419a.477.477 0 1 0-.731-.612c-3.102 3.698-8.85 3.395-8.928 3.39a.477.477 0 0 0-.505.518l.045.498h-.079c-.334 0-.642.11-.891.296a7.08 7.08 0 0 1-.158-1.486c0-1.716.673-3.336 1.895-4.562 1.248-1.25 2.934-1.94 4.748-1.94 1.815 0 3.5.689 4.748 1.94a6.424 6.424 0 0 1 1.895 4.562c0 .579-.07 1.085-.157 1.486a1.486 1.486 0 0 0-.892-.296h-.079l.046-.497a.477.477 0 0 0-.138-.38l-1.017-1.017a.477.477 0 1 0-.674.674l.859.859-.34 3.734c-.389.345-1.624 1.204-4.25 1.204a.477.477 0 1 0 0 .954c1.825 0 3.074-.383 3.884-.786-.128.167-.29.31-.48.415L9.88 18.839a1.548 1.548 0 0 1-1.513 0l-2.649-1.471zm.419 3.646a1.49 1.49 0 0 0 .92-1.379v-.433l.846.47a2.498 2.498 0 0 0 2.439.001l.846-.47v.432c0 .605.361 1.146.92 1.38l.5.207c-.895 1.039-1.759 1.555-2.344 1.807-.648.279-1.096.302-1.142.304-.045-.002-.493-.025-1.141-.304-.585-.252-1.45-.768-2.344-1.807l.5-.208zm-3.086 6.45H1.494a.541.541 0 0 1-.54-.54v-3.05c0-.132.024-.26.07-.377l1.634 1.308c.25.2.393.498.393.819v1.84zm11.189-1.84v1.84H4.005v-1.84c0-.612-.274-1.182-.752-1.564l-1.515-1.213 2.977-1.24c1.572 1.943 3.16 2.477 3.93 2.624v1.613a.477.477 0 1 0 .954 0V24.23c.771-.147 2.359-.681 3.93-2.625l2.978 1.241-1.516 1.213a1.993 1.993 0 0 0-.751 1.564zm3.051 1.3a.54.54 0 0 1-.54.54h-1.558v-1.84c0-.32.144-.62.394-.82l1.634-1.307c.046.118.07.245.07.376v3.052z"/><path d="M8.535 13.495c-.228-.473-.778-.778-1.4-.778-.623 0-1.172.305-1.4.778a.477.477 0 0 0 .859.414c.056-.116.264-.239.54-.239.277 0 .486.123.542.239a.477.477 0 1 0 .859-.414zm3.975 0c-.228-.473-.777-.778-1.4-.778-.623 0-1.172.305-1.4.778a.477.477 0 1 0 .859.414c.056-.116.264-.239.54-.239.277 0 .486.123.542.239a.477.477 0 1 0 .859-.414zM23.87.003a6.078 6.078 0 0 0-6.07 6.07 6.02 6.02 0 0 0 2.054 4.546c-.658 1.076-1.371 1.697-1.379 1.703a.477.477 0 0 0 .348.838c.078-.006 1.868-.159 3.457-1.227a6.074 6.074 0 0 0 7.662-5.86A6.078 6.078 0 0 0 23.87.004zm0 11.188a5.116 5.116 0 0 1-1.534-.235.477.477 0 0 0-.424.07 6.3 6.3 0 0 1-1.784.882 9.46 9.46 0 0 0 .76-1.172.477.477 0 0 0-.128-.606 5.082 5.082 0 0 1-2.007-4.056A5.123 5.123 0 0 1 23.871.956a5.123 5.123 0 0 1 5.117 5.118 5.123 5.123 0 0 1-5.117 5.117z"/><path d="M24.38 8.648h-.033V5.533h.032a.477.477 0 1 0 0-.953h-1.017a.477.477 0 1 0 0 .953h.032v3.115h-.032a.477.477 0 1 0 0 .954h1.017a.477.477 0 1 0 0-.954z"/></symbol><symbol viewBox="0 0 64 64" id="delivery" xmlns="http://www.w3.org/2000/svg"><path d="M48.38 18.763A1.967 1.967 0 0 0 46.416 17H40.75v-4.5c0-2.481-2.02-4.5-4.5-4.5h-7.5a4.505 4.505 0 0 0-4.5 4.5V17h-5.688a1.984 1.984 0 0 0-1.983 1.783l-3.569 34.99c-.058.57.13 1.14.517 1.563.384.422.933.664 1.505.664h34.884a2.076 2.076 0 0 0 2.074-2.285l-3.61-34.952zM25.75 12.5c0-1.654 1.346-3 3-3h7.5c1.654 0 3 1.346 3 3V17h-13.5v-4.5zm24.604 41.808a.596.596 0 0 1-.438.192H15.033a.535.535 0 0 1-.397-.175.51.51 0 0 1-.133-.4l3.569-34.99a.487.487 0 0 1 .49-.435h5.688v3.888A2.244 2.244 0 0 0 25 26.75a2.244 2.244 0 1 0 .75-4.362V18.5h13.5v3.888A2.244 2.244 0 0 0 40 26.75a2.244 2.244 0 1 0 .75-4.362V18.5h5.666c.244 0 .447.18.471.417l3.61 34.95a.572.572 0 0 1-.143.441z"/><path d="M37 47.75h-9a.75.75 0 1 0 0 1.5h9a.75.75 0 1 0 0-1.5z"/></symbol><symbol viewBox="0 0 30 19" id="delivey-car" xmlns="http://www.w3.org/2000/svg"><path d="M29.512 8.764a2.068 2.068 0 0 0-1.225-.703l-.23-3.11a.47.47 0 0 0 .459-.388l.088-.5c.095-.538-.037-1.068-.362-1.455s-.8-.6-1.338-.6h-3.449l.168-.952a.903.903 0 0 0-.19-.74.89.89 0 0 0-.685-.312H5.773c-.502 0-.964.39-1.052.89L3.219 9.41a.47.47 0 0 0 .925.163l1.502-8.518c.01-.056.082-.113.127-.113h16.916L21.196 9.41a.47.47 0 1 0 .925.163l.108-.614h5.618c.389 0 .724.145.945.408.152.181.241.407.263.656h-1.56a.47.47 0 0 0-.463.389l-.177 1.002c-.071.403.03.803.276 1.097.243.29.612.456 1.012.456h.442l-.364 2.067h-1.24a2.467 2.467 0 0 0-.531-1.116c-.48-.573-1.188-.888-1.991-.888-1.288 0-2.53.842-3.112 2.004h-.189l.61-3.457a.47.47 0 1 0-.925-.163l-.639 3.62H11.51a2.467 2.467 0 0 0-.531-1.116c-.48-.573-1.188-.888-1.99-.888-1.289 0-2.531.842-3.113 2.004H3.181l.188-1.065H5.48a.47.47 0 0 0 0-.94H.47a.47.47 0 0 0 0 .94h1.945l-.168.952c-.047.27.022.54.19.74a.89.89 0 0 0 .686.312H5.57c-.127.797.064 1.548.543 2.119.48.572 1.188.888 1.99.888 1.6 0 3.129-1.298 3.41-2.894.007-.038.012-.075.017-.113h9.512c-.127.797.064 1.548.543 2.119.48.572 1.187.888 1.99.888 1.6 0 3.129-1.298 3.41-2.894.007-.038.012-.075.017-.113h1.613a.47.47 0 0 0 .463-.388l.883-5.01c.12-.68-.04-1.324-.449-1.812zm-7.117-.744l.541-3.068h4.18l.226 3.068h-4.947zM27.68 3.9l-.02.112h-4.557l.188-1.064h3.614c.256 0 .475.093.618.264.148.176.204.42.157.687zM10.59 15.923c-.207 1.168-1.321 2.117-2.485 2.117-.52 0-.972-.196-1.271-.552-.308-.367-.425-.864-.33-1.402.206-1.167 1.32-2.117 2.484-2.117.52 0 .972.197 1.271.553.308.366.425.864.33 1.401zm15.47 0c-.205 1.168-1.32 2.117-2.483 2.117-.521 0-.972-.196-1.271-.552-.308-.367-.425-.864-.33-1.402.205-1.167 1.32-2.117 2.484-2.117.52 0 .972.197 1.271.553.307.366.425.864.33 1.401zm2.692-3.895h-.608a.367.367 0 0 1-.293-.12.398.398 0 0 1-.07-.33l.108-.615h1.05l-.187 1.065z"/><path d="M9.32 15.347a.89.89 0 0 0-.686-.312c-.502 0-.964.39-1.052.89-.048.27.021.54.19.74a.89.89 0 0 0 .685.311c.502 0 .964-.39 1.052-.889a.903.903 0 0 0-.19-.74zm15.472 0a.89.89 0 0 0-.686-.312c-.502 0-.964.39-1.052.89a.9.9 0 0 0 .189.74.89.89 0 0 0 .686.311c.502 0 .964-.39 1.052-.889a.903.903 0 0 0-.19-.74zm-5.844-2.317h-5.952a.47.47 0 0 0 0 .94h5.952a.47.47 0 0 0 0-.94zm-8.458-2.003H1.825a.47.47 0 0 0 0 .94h8.665a.47.47 0 0 0 0-.94zm8.97-1.89l-1.738-1.503a.47.47 0 0 0-.615.71l.785.679H5.982a.47.47 0 0 0 0 .94h11.612l-.97.64a.47.47 0 1 0 .52.784l2.269-1.503a.47.47 0 0 0 .048-.747z"/></symbol><symbol viewBox="0 0 20 4" id="dots" xmlns="http://www.w3.org/2000/svg"><path d="M2 4a2 2 0 1 1 0-4 2 2 0 0 1 0 4zm8 0a2 2 0 1 1 0-4 2 2 0 0 1 0 4zm8 0a2 2 0 1 1 0-4 2 2 0 0 1 0 4z" fill-rule="evenodd"/></symbol><symbol viewBox="0 0 30 19" id="fast-delivery" xmlns="http://www.w3.org/2000/svg"><path d="M29.512 8.764a2.068 2.068 0 0 0-1.225-.703l-.23-3.11a.47.47 0 0 0 .459-.388l.088-.5c.095-.538-.037-1.068-.362-1.455s-.8-.6-1.338-.6h-3.449l.168-.952a.903.903 0 0 0-.19-.74.89.89 0 0 0-.685-.312H5.773c-.502 0-.964.39-1.052.89L3.219 9.41a.47.47 0 0 0 .925.163l1.502-8.518c.01-.056.082-.113.127-.113h16.916L21.196 9.41a.47.47 0 1 0 .925.163l.108-.614h5.618c.389 0 .724.145.945.408.152.181.241.407.263.656h-1.56a.47.47 0 0 0-.463.389l-.177 1.002c-.071.403.03.803.276 1.097.243.29.612.456 1.012.456h.442l-.364 2.067h-1.24a2.467 2.467 0 0 0-.531-1.116c-.48-.573-1.188-.888-1.991-.888-1.288 0-2.53.842-3.112 2.004h-.189l.61-3.457a.47.47 0 1 0-.925-.163l-.639 3.62H11.51a2.467 2.467 0 0 0-.531-1.116c-.48-.573-1.188-.888-1.99-.888-1.289 0-2.531.842-3.113 2.004H3.181l.188-1.065H5.48a.47.47 0 0 0 0-.94H.47a.47.47 0 0 0 0 .94h1.945l-.168.952c-.047.27.022.54.19.74a.89.89 0 0 0 .686.312H5.57c-.127.797.064 1.548.543 2.119.48.572 1.188.888 1.99.888 1.6 0 3.129-1.298 3.41-2.894.007-.038.012-.075.017-.113h9.512c-.127.797.064 1.548.543 2.119.48.572 1.187.888 1.99.888 1.6 0 3.129-1.298 3.41-2.894.007-.038.012-.075.017-.113h1.613a.47.47 0 0 0 .463-.388l.883-5.01c.12-.68-.04-1.324-.449-1.812zm-7.117-.744l.541-3.068h4.18l.226 3.068h-4.947zM27.68 3.9l-.02.112h-4.557l.188-1.064h3.614c.256 0 .475.093.618.264.148.176.204.42.157.687zM10.59 15.923c-.207 1.168-1.321 2.117-2.485 2.117-.52 0-.972-.196-1.271-.552-.308-.367-.425-.864-.33-1.402.206-1.167 1.32-2.117 2.484-2.117.52 0 .972.197 1.271.553.308.366.425.864.33 1.401zm15.47 0c-.205 1.168-1.32 2.117-2.483 2.117-.521 0-.972-.196-1.271-.552-.308-.367-.425-.864-.33-1.402.205-1.167 1.32-2.117 2.484-2.117.52 0 .972.197 1.271.553.307.366.425.864.33 1.401zm2.692-3.895h-.608a.367.367 0 0 1-.293-.12.398.398 0 0 1-.07-.33l.108-.615h1.05l-.187 1.065z"/><path d="M9.32 15.347a.89.89 0 0 0-.686-.312c-.502 0-.964.39-1.052.89-.048.27.021.54.19.74a.89.89 0 0 0 .685.311c.502 0 .964-.39 1.052-.889a.903.903 0 0 0-.19-.74zm15.472 0a.89.89 0 0 0-.686-.312c-.502 0-.964.39-1.052.89a.9.9 0 0 0 .189.74.89.89 0 0 0 .686.311c.502 0 .964-.39 1.052-.889a.903.903 0 0 0-.19-.74zm-5.844-2.317h-5.952a.47.47 0 0 0 0 .94h5.952a.47.47 0 0 0 0-.94zm-8.458-2.003H1.825a.47.47 0 0 0 0 .94h8.665a.47.47 0 0 0 0-.94zm8.97-1.89l-1.738-1.503a.47.47 0 0 0-.615.71l.785.679H5.982a.47.47 0 0 0 0 .94h11.612l-.97.64a.47.47 0 1 0 .52.784l2.269-1.503a.47.47 0 0 0 .048-.747z"/></symbol><symbol viewBox="0 0 64 64" id="guarantee" xmlns="http://www.w3.org/2000/svg"><path d="M46.948 52.307l-5.46-19.07c2.916-2.61 4.762-6.39 4.762-10.612 0-7.87-6.38-14.25-14.25-14.25s-14.25 6.38-14.25 14.25c0 4.208 1.835 7.978 4.736 10.587l-5.434 18.979a.748.748 0 0 0 1.125.838l5.008-3.208 2.734 5.283a.75.75 0 0 0 1.39-.15l4.675-17.45L36.69 55.07a.749.749 0 0 0 1.39.151l2.735-5.282 5.008 3.207a.75.75 0 0 0 1.125-.838zM19.25 22.625c0-7.03 5.72-12.75 12.75-12.75s12.75 5.72 12.75 12.75-5.72 12.75-12.75 12.75-12.75-5.72-12.75-12.75zm7.112 30.07L24.139 48.4a.749.749 0 0 0-1.07-.286l-4.028 2.58 4.712-16.462a14.154 14.154 0 0 0 6.866 2.573l-4.257 15.89zm14.57-4.464a.752.752 0 0 0-1.07.287l-2.224 4.294-4.288-16.005a14.156 14.156 0 0 0 6.87-2.554l4.74 16.558-4.029-2.58z"/><path d="M32 31.625a9 9 0 1 0 0-18 9 9 0 0 0 0 18zm0-16.5c4.136 0 7.5 3.365 7.5 7.5 0 4.136-3.364 7.5-7.5 7.5s-7.5-3.364-7.5-7.5c0-4.135 3.364-7.5 7.5-7.5z"/></symbol><symbol viewBox="0 0 30 30" id="map" xmlns="http://www.w3.org/2000/svg"><path d="M30 19.833V10.16a.479.479 0 0 0-.343-.459l-4.475-1.328c.347-.847.563-1.688.563-2.469A5.911 5.911 0 0 0 19.84 0a5.91 5.91 0 0 0-5.904 5.904c0 .781.216 1.622.562 2.47L10.16 9.66.615 6.829A.48.48 0 0 0 0 7.288v19.361c0 .212.14.399.343.459l9.673 2.87.007.002.005.001a.468.468 0 0 0 .054.012l.015.003a.482.482 0 0 0 .124 0l.015-.003a.487.487 0 0 0 .055-.012h.005l.004-.002 9.346-2.773a.476.476 0 0 0 .388 0l9.351 2.774a.478.478 0 0 0 .615-.459v-9.688zm-.957-9.316V19.2l-8.724-2.588V15.25c.624-.642 3.076-3.255 4.46-5.996l4.264 1.264zM19.84.957a4.952 4.952 0 0 1 4.947 4.947c0 .778-.26 1.644-.665 2.52a.478.478 0 0 0-.048.105c-1.154 2.435-3.385 4.93-4.234 5.834-.848-.902-3.077-3.395-4.231-5.829a.479.479 0 0 0-.053-.114c-.403-.875-.663-1.74-.663-2.516A4.952 4.952 0 0 1 19.84.957zm-.478 14.292v1.362l-8.724 2.588v-8.682l4.263-1.264c1.385 2.741 3.836 5.354 4.46 5.996zM.957 17.61l3.308.982a.48.48 0 1 0 .272-.918l-3.58-1.062V7.93l8.724 2.588V19.2l-3.308-.981a.479.479 0 1 0-.272.918l3.58 1.062v8.682L.957 26.292V17.61zm19.362 8.683v-3.466a.479.479 0 1 0-.957 0v3.466l-8.724 2.588v-8.682l8.724-2.588v3.301a.479.479 0 1 0 .957 0V17.61l8.724 2.588v8.682l-8.724-2.588z"/><path d="M19.84 9.255a3.355 3.355 0 0 0 3.351-3.35 3.355 3.355 0 0 0-3.35-3.352 3.355 3.355 0 0 0-3.352 3.351 3.355 3.355 0 0 0 3.351 3.351zm0-5.744a2.396 2.396 0 0 1 2.394 2.393 2.396 2.396 0 0 1-2.394 2.394 2.396 2.396 0 0 1-2.393-2.394 2.396 2.396 0 0 1 2.393-2.393z"/></symbol><symbol viewBox="0 0 64 64" id="payment" xmlns="http://www.w3.org/2000/svg"><path d="M52.1 17.317h-3.358L44.54 8.912a.77.77 0 0 0-1.033-.344l-7.58 3.789-6.088-4.221a.774.774 0 0 0-1.02.128l-7.87 9.053h-9.5a4.335 4.335 0 0 0-4.335 4.335v30.013A4.335 4.335 0 0 0 11.449 56h40.65a4.335 4.335 0 0 0 4.336-4.335V21.652a4.335 4.335 0 0 0-4.335-4.335zm-5.08 0H29.453l14.054-7.027 3.513 7.027zM29.53 9.795l4.827 3.347-8.348 4.175H22.99l6.54-7.522zM52.1 54.46H11.449a2.798 2.798 0 0 1-2.795-2.795V21.652a2.798 2.798 0 0 1 2.795-2.795h40.65a2.798 2.798 0 0 1 2.796 2.795v5.566h-10.81c-4.225 0-7.662 3.443-7.662 7.676v1.363c0 4.232 3.437 7.674 7.661 7.674h10.81v7.734A2.798 2.798 0 0 1 52.1 54.46zm2.795-25.701V42.39h-10.81c-3.376 0-6.122-2.752-6.122-6.134v-1.363c0-3.383 2.746-6.135 6.121-6.135h10.81z"/><path d="M41.015 35.347a3.083 3.083 0 0 0 3.08 3.08 3.083 3.083 0 0 0 3.08-3.08 3.083 3.083 0 0 0-3.08-3.08 3.083 3.083 0 0 0-3.08 3.08zm3.08-1.54a1.54 1.54 0 1 1-.001 3.079 1.54 1.54 0 0 1 .001-3.079z"/></symbol><symbol viewBox="0 0 54.757 54.757" id="pin" xmlns="http://www.w3.org/2000/svg"><path d="M27.557 12c-3.859 0-7 3.141-7 7s3.141 7 7 7 7-3.141 7-7-3.141-7-7-7zm0 12c-2.757 0-5-2.243-5-5s2.243-5 5-5 5 2.243 5 5-2.243 5-5 5z"/><path d="M40.94 5.617A19.052 19.052 0 0 0 27.38 0a19.05 19.05 0 0 0-13.56 5.617c-6.703 6.702-7.536 19.312-1.804 26.952L27.38 54.757 42.721 32.6c5.755-7.671 4.922-20.281-1.781-26.983zm.159 25.814L27.38 51.243 13.639 31.4C8.44 24.468 9.185 13.08 15.235 7.031 18.479 3.787 22.792 2 27.38 2s8.901 1.787 12.146 5.031c6.05 6.049 6.795 17.437 1.573 24.4z"/></symbol><symbol viewBox="0 0 30 30" id="recommend" xmlns="http://www.w3.org/2000/svg"><path d="M22.988 13.246c0-.95-.773-1.722-1.722-1.722H18.1c.77-.864 1.272-1.849 1.369-2.732a1.9 1.9 0 0 0-.457-1.469 1.651 1.651 0 0 0-1.232-.565h-.016a1.713 1.713 0 0 0-1.722 1.708c-.017.1-.193.446-.625.856a4.892 4.892 0 0 1-1.864 1.09 2.285 2.285 0 0 0-.96.628 6.21 6.21 0 0 1-.647.597.964.964 0 0 0-.453-.113H8.486a.972.972 0 0 0-.97.97v8.018c0 .535.435.97.97.97h3.007a.971.971 0 0 0 .849-.5h7.67a1.473 1.473 0 0 0 1.268-2.22 1.472 1.472 0 0 0 .501-2.005 1.472 1.472 0 0 0 .45-2.085c.456-.31.757-.833.757-1.426zm-1.722.783h-.251a.47.47 0 0 0 0 .94.533.533 0 0 1 0 1.064h-.501a.47.47 0 0 0 0 .94.533.533 0 0 1 0 1.065h-.501a.47.47 0 0 0 0 .94.533.533 0 0 1 0 1.064h-7.55v-4.54a.47.47 0 0 0-.939 0v5.01a.031.031 0 0 1-.031.031H8.486a.031.031 0 0 1-.03-.031v-8.017c0-.018.013-.032.03-.032h3.007c.017 0 .031.014.031.032v1.002a.47.47 0 0 0 .94 0v-1.002c0-.023-.002-.045-.004-.068.352-.272.634-.548.818-.744.173-.185.364-.312.565-.377a5.803 5.803 0 0 0 2.279-1.358c.538-.529.86-1.08.86-1.474 0-.209.08-.404.228-.55a.788.788 0 0 1 .561-.227.716.716 0 0 1 .538.25c.171.193.256.47.226.743-.103.933-.85 2.087-1.902 2.939a.47.47 0 0 0 .296.834h4.336a.784.784 0 0 1 0 1.566z"/><path d="M9.99 18.534a.474.474 0 0 0-.473.472c0 .26.213.472.473.472a.474.474 0 0 0 .472-.472.474.474 0 0 0-.472-.472z"/><path d="M29.163 15l.807-2.135a.47.47 0 0 0-.073-.46l-1.427-1.782.107-2.28a.47.47 0 0 0-.211-.415l-1.908-1.253-.602-2.202a.47.47 0 0 0-.33-.329l-2.201-.602-1.254-1.908a.47.47 0 0 0-.414-.211l-2.28.107L17.595.103a.47.47 0 0 0-.46-.073L15 .837 12.865.03a.47.47 0 0 0-.46.073l-1.782 1.428-2.28-.108a.469.469 0 0 0-.414.211L6.675 3.542l-2.201.602a.47.47 0 0 0-.33.33l-.602 2.201L1.634 7.93a.47.47 0 0 0-.211.414l.108 2.28-1.428 1.782a.47.47 0 0 0-.073.46L.837 15 .03 17.135a.47.47 0 0 0 .073.46l1.427 1.782-.107 2.28a.47.47 0 0 0 .211.414l1.908 1.254.602 2.202a.47.47 0 0 0 .33.329l2.201.602 1.253 1.908c.092.139.25.218.415.211l2.28-.107 1.782 1.427a.47.47 0 0 0 .46.073L15 29.163l2.135.807a.47.47 0 0 0 .46-.073l1.782-1.427 2.28.107a.47.47 0 0 0 .414-.211l1.254-1.908 2.202-.602a.47.47 0 0 0 .329-.33l.602-2.201 1.908-1.254a.47.47 0 0 0 .211-.414l-.107-2.28 1.427-1.782a.47.47 0 0 0 .073-.46L29.163 15zm-.942.166l.775 2.05-1.37 1.712a.47.47 0 0 0-.103.315l.103 2.19-1.832 1.204a.47.47 0 0 0-.195.269l-.579 2.114-2.114.579a.47.47 0 0 0-.27.195l-1.203 1.832-2.19-.103a.47.47 0 0 0-.315.102l-1.711 1.371-2.05-.775a.47.47 0 0 0-.333 0l-2.05.775-1.712-1.37a.47.47 0 0 0-.315-.103l-2.19.103-1.204-1.832a.47.47 0 0 0-.269-.195L4.98 25.02l-.58-2.114a.47.47 0 0 0-.195-.27l-1.832-1.203.103-2.19a.47.47 0 0 0-.102-.315l-1.371-1.711.775-2.05a.47.47 0 0 0 0-.333l-.775-2.05 1.37-1.712a.47.47 0 0 0 .103-.315l-.103-2.19 1.832-1.204a.47.47 0 0 0 .195-.269l.58-2.114 2.114-.58a.47.47 0 0 0 .27-.195l1.203-1.832 2.19.103a.47.47 0 0 0 .315-.102l1.711-1.371 2.05.775a.47.47 0 0 0 .333 0l2.05-.775 1.712 1.37a.47.47 0 0 0 .315.103l2.19-.103 1.204 1.832a.47.47 0 0 0 .269.195l2.114.579.579 2.114c.03.11.1.206.195.27l1.832 1.203-.103 2.19a.47.47 0 0 0 .102.315l1.371 1.711-.775 2.05a.47.47 0 0 0 0 .333z"/><path d="M23.826 6.89a12.26 12.26 0 0 0-.736-.738.47.47 0 1 0-.636.692 11.397 11.397 0 0 1 .68.68.469.469 0 0 0 .664.029.47.47 0 0 0 .028-.664zm-2.405-2.02a12.039 12.039 0 0 0-7.679-1.806 12.02 12.02 0 0 0-7.238 3.449 11.958 11.958 0 0 0-3.503 7.993c-.121 3 .872 5.912 2.798 8.2a.469.469 0 1 0 .718-.605 11.017 11.017 0 0 1-2.577-7.557 11.02 11.02 0 0 1 3.228-7.367A11.077 11.077 0 0 1 13.838 4a11.093 11.093 0 0 1 7.079 1.664.47.47 0 1 0 .504-.792zm3.687 3.687a.47.47 0 1 0-.792.505c1.33 2.087 1.92 4.6 1.664 7.078a11.078 11.078 0 0 1-3.178 6.67 11.021 11.021 0 0 1-7.367 3.229 11.016 11.016 0 0 1-7.557-2.578.47.47 0 1 0-.605.719 11.947 11.947 0 0 0 8.2 2.798 11.958 11.958 0 0 0 7.993-3.503 12.02 12.02 0 0 0 3.449-7.239 12.038 12.038 0 0 0-1.807-7.679z"/></symbol><symbol viewBox="0 0 238.003 238.003" id="right-chevron" xmlns="http://www.w3.org/2000/svg"><path d="M181.776 107.719L78.705 4.648c-6.198-6.198-16.273-6.198-22.47 0s-6.198 16.273 0 22.47l91.883 91.883-91.883 91.883c-6.198 6.198-6.198 16.273 0 22.47s16.273 6.198 22.47 0l103.071-103.039a15.741 15.741 0 0 0 4.64-11.283c0-4.13-1.526-8.199-4.64-11.313z"/></symbol><symbol viewBox="0 0 250.313 250.313" id="search" xmlns="http://www.w3.org/2000/svg"><path d="M244.186 214.604l-54.379-54.378c-.289-.289-.628-.491-.93-.76 10.7-16.231 16.945-35.66 16.945-56.554C205.822 46.075 159.747 0 102.911 0S0 46.075 0 102.911c0 56.835 46.074 102.911 102.91 102.911 20.895 0 40.323-6.245 56.554-16.945.269.301.47.64.759.929l54.38 54.38c8.169 8.168 21.413 8.168 29.583 0 8.168-8.169 8.168-21.413 0-29.582zm-141.275-44.458c-37.134 0-67.236-30.102-67.236-67.235 0-37.134 30.103-67.236 67.236-67.236 37.132 0 67.235 30.103 67.235 67.236s-30.103 67.235-67.235 67.235z" fill-rule="evenodd" clip-rule="evenodd"/></symbol><symbol viewBox="0 0 23 30" id="service-center" xmlns="http://www.w3.org/2000/svg"><path d="M15.255 3.738a8.525 8.525 0 0 0-9.891 1.586c-3.04 3.041-3.345 7.89-.708 11.278a.472.472 0 1 0 .746-.58c-2.344-3.013-2.073-7.325.63-10.029a7.58 7.58 0 0 1 8.797-1.411.473.473 0 1 0 .426-.844zm3.775 3.776a.473.473 0 0 0-.844.426 7.581 7.581 0 0 1-1.411 8.795c-2.705 2.704-7.016 2.975-10.029.63a.473.473 0 0 0-.58.746 8.496 8.496 0 0 0 5.23 1.793c2.2 0 4.392-.845 6.047-2.5a8.525 8.525 0 0 0 1.587-9.89zm-1.221-1.801a8.669 8.669 0 0 0-.755-.754.473.473 0 1 0-.626.708 7.761 7.761 0 0 1 .672.672.472.472 0 0 0 .668.042.473.473 0 0 0 .041-.668z"/><path d="M22.562 12.212a1.604 1.604 0 0 0 0-1.677l-.622-1.02a.666.666 0 0 1-.089-.45l.186-1.177a1.604 1.604 0 0 0-.644-1.553l-.964-.701a.666.666 0 0 1-.255-.381l-.28-1.16a1.604 1.604 0 0 0-1.187-1.187l-1.16-.28a.665.665 0 0 1-.381-.256l-.702-.964a1.603 1.603 0 0 0-1.552-.644l-1.178.186a.666.666 0 0 1-.45-.09l-1.02-.622a1.604 1.604 0 0 0-1.677 0l-1.02.622a.666.666 0 0 1-.449.09L7.94.762a1.604 1.604 0 0 0-1.553.644l-.7.964a.666.666 0 0 1-.382.255l-1.16.28a1.604 1.604 0 0 0-1.187 1.187l-.28 1.16a.665.665 0 0 1-.255.381l-.965.701a1.604 1.604 0 0 0-.643 1.553L1 9.065a.665.665 0 0 1-.089.45l-.622 1.02a1.604 1.604 0 0 0 0 1.677l.622 1.02a.666.666 0 0 1 .09.449l-.186 1.178c-.095.6.152 1.195.643 1.553l.964.7a.665.665 0 0 1 .255.382l.281 1.16c.143.59.597 1.044 1.186 1.186l.485.118L1.35 27.27a.473.473 0 0 0 .488.663l2.638-.316 1.52 2.18a.473.473 0 0 0 .819-.077l3.348-7.47.424.259a1.608 1.608 0 0 0 1.677 0l.44-.268 3.352 7.479a.473.473 0 0 0 .82.077l1.519-2.18 2.638.316a.473.473 0 0 0 .488-.663l-3.28-7.317.466-.113a1.604 1.604 0 0 0 1.186-1.186l.28-1.16a.665.665 0 0 1 .256-.382l.964-.701c.491-.357.738-.952.644-1.553l-.186-1.178a.665.665 0 0 1 .09-.45l.621-1.02zM6.293 28.572L5.09 26.845a.473.473 0 0 0-.444-.2l-2.09.25 2.987-6.663c.054.04.103.089.144.144l.7.964c.068.092.142.175.224.249l-1.572 3.507a.473.473 0 0 0 .863.387l1.566-3.495c.154.021.313.021.472-.004l1.179-.185a.664.664 0 0 1 .211.001l-3.036 6.772zm14.023-1.676l-2.09-.25a.472.472 0 0 0-.444.199l-1.205 1.727-3.036-6.775a.666.666 0 0 1 .193.002l1.177.185c.166.026.331.025.491.002l1.568 3.497a.473.473 0 1 0 .863-.387l-1.578-3.52c.076-.07.146-.15.209-.235l.701-.964a.664.664 0 0 1 .16-.155l2.991 6.674zm1.44-15.177l-.623 1.02a1.613 1.613 0 0 0-.216 1.089l.186 1.178a.662.662 0 0 1-.266.641l-.964.701a1.612 1.612 0 0 0-.618.924l-.281 1.16a.662.662 0 0 1-.49.49l-1.16.28a1.61 1.61 0 0 0-.923.619l-.702.963a.662.662 0 0 1-.64.266l-1.179-.185a1.612 1.612 0 0 0-1.088.216l-1.02.621a.663.663 0 0 1-.692 0l-1.02-.622a1.612 1.612 0 0 0-1.09-.215l-1.178.185a.662.662 0 0 1-.64-.266l-.702-.964a1.612 1.612 0 0 0-.923-.618l-1.16-.28a.662.662 0 0 1-.49-.49l-.28-1.16c-.09-.371-.31-.7-.619-.924l-.964-.701a.662.662 0 0 1-.265-.641l.185-1.178a1.612 1.612 0 0 0-.216-1.089l-.622-1.02a.662.662 0 0 1 0-.692l.622-1.02c.199-.326.276-.712.216-1.089L1.75 7.74a.662.662 0 0 1 .266-.64l.964-.702a1.62 1.62 0 0 0 .618-.924l.28-1.16a.662.662 0 0 1 .49-.49l1.16-.28c.371-.09.7-.31.924-.618l.701-.964a.662.662 0 0 1 .641-.266l1.178.186c.377.059.763-.018 1.089-.216l1.02-.622a.663.663 0 0 1 .692 0l1.02.622c.325.198.712.275 1.089.216l1.178-.186a.662.662 0 0 1 .64.266l.702.964c.225.309.553.528.924.618l1.16.28c.243.06.43.247.49.49l.28 1.16c.09.372.31.7.618.924l.964.701a.662.662 0 0 1 .266.641l-.186 1.178c-.059.377.018.764.216 1.089l.622 1.02c.13.214.13.479 0 .692z"/><path d="M16.958 9.902a.846.846 0 0 0-.712-.584l-2.845-.338-1.2-2.6a.846.846 0 0 0-.775-.497.846.846 0 0 0-.776.496L9.45 8.98l-2.845.338a.846.846 0 0 0-.712.584.846.846 0 0 0 .233.891l2.103 1.945-.558 2.81c-.066.33.063.66.336.858a.85.85 0 0 0 .919.054l2.5-1.4 2.5 1.4a.846.846 0 0 0 .919-.054.846.846 0 0 0 .336-.858l-.559-2.81 2.103-1.945a.846.846 0 0 0 .233-.89zm-3.172 2.322a.473.473 0 0 0-.143.439l.572 2.875-2.558-1.432a.473.473 0 0 0-.462 0l-2.558 1.432.57-2.875a.472.472 0 0 0-.142-.44l-2.152-1.99 2.911-.345a.473.473 0 0 0 .374-.271l1.228-2.662 1.227 2.662c.07.15.21.252.374.271l2.911.345-2.152 1.99z"/></symbol><symbol viewBox="0 0 16 15" id="star" xmlns="http://www.w3.org/2000/svg"><path d="M8 12l-4.702 2.472.898-5.236L.392 5.528l5.257-.764L8 0l2.351 4.764 5.257.764-3.804 3.708.898 5.236z" fill-rule="evenodd"/></symbol><symbol viewBox="0 0 30 30" id="tag" xmlns="http://www.w3.org/2000/svg"><path d="M30 2.044a2.021 2.021 0 0 0-.595-1.448 2.048 2.048 0 0 0-2.896.01c-.164.163-.463.517-.626.714a.486.486 0 1 0 .748.62c.256-.307.467-.55.565-.648.205-.205.476-.318.765-.32h.004a1.056 1.056 0 0 1 1.063 1.067 1.08 1.08 0 0 1-.32.765c-.183.184-.814.684-1.717 1.315a3.08 3.08 0 0 0-2.659-1.53h-7.117c-.96 0-1.864.375-2.543 1.054L.446 17.87c-.288.288-.446.67-.446 1.077 0 .407.158.79.446 1.077l9.531 9.531c.297.297.687.446 1.077.446.39 0 .78-.149 1.077-.446l14.226-14.226a3.573 3.573 0 0 0 1.054-2.543V5.668c0-.21-.022-.415-.062-.613 1.028-.708 1.783-1.3 2.047-1.563A2.05 2.05 0 0 0 30 2.044zm-3.562 10.741a2.61 2.61 0 0 1-.768 1.856L11.444 28.867a.552.552 0 0 1-.78 0l-9.53-9.531a.547.547 0 0 1 0-.78L15.358 4.332a2.608 2.608 0 0 1 1.856-.769h7.117c.8 0 1.496.448 1.853 1.105-.574.38-1.217.784-1.899 1.182a2.044 2.044 0 0 0-2.952-.069 2.044 2.044 0 0 0 0 2.887c.397.398.92.597 1.443.597s1.045-.2 1.443-.597a2.042 2.042 0 0 0 .53-1.964 40.812 40.812 0 0 0 1.688-1.04v7.122zm-4.095-5.343a.486.486 0 0 0 .653.216c.284-.144.568-.293.85-.446a1.07 1.07 0 1 1-1.824-.745 1.066 1.066 0 0 1 1.372-.115c-.275.15-.554.296-.835.437a.486.486 0 0 0-.216.653z"/><path d="M14.482 9.9a.486.486 0 0 0-.486.486v10.265a.486.486 0 0 0 .972 0V10.386a.486.486 0 0 0-.486-.486zm-2.222 4.175a2.043 2.043 0 0 0-2.887 0 2.044 2.044 0 0 0 0 2.887 2.04 2.04 0 1 0 2.887-2.887zm-.688 2.2a1.07 1.07 0 0 1-1.512-1.513c.209-.208.482-.312.756-.312a1.066 1.066 0 0 1 1.07 1.068c0 .286-.112.554-.314.756zm8.019-2.2a2.043 2.043 0 0 0-2.886 0 2.044 2.044 0 0 0 0 2.887c.398.398.92.597 1.443.597s1.046-.2 1.443-.597a2.044 2.044 0 0 0 0-2.887zm-.687 2.2a1.07 1.07 0 0 1-1.512-1.513c.208-.208.482-.312.756-.312s.548.104.756.312a1.07 1.07 0 0 1 0 1.512z"/></symbol><symbol viewBox="0 0 792 792" id="ukr" xmlns="http://www.w3.org/2000/svg"><path d="M650.462 465.447H309.938c32.586-19.855 69.08-37.412 105.021-54.372 56.945-27.025 111.318-52.947 149.834-87.326h85.67c8.871 0 16.088-7.17 16.088-16.086 0-8.871-7.17-16.086-16.088-16.086h-56.439c.139-.184.322-.368.459-.552 37.965-54.602 42.33-122.164 11.721-180.718C570.583 42.192 495.206 0 409.489 0c-74.457 0-134.298 21.556-177.961 64.023-6.388 6.159-6.526 16.408-.321 22.797 6.296 6.297 16.316 6.572 22.75.276 37.412-36.447 89.762-54.969 155.532-54.969 73.721 0 138.158 35.62 168.172 93.071 25.324 48.489 21.83 102.263-9.607 147.489-4.596 6.572-10.111 12.823-16.131 18.844H141.537c-8.917.046-16.086 7.216-16.086 16.086 0 8.87 7.17 16.086 16.086 16.086h369.986c-31.668 20.729-70.273 39.205-110.352 58.233-52.075 24.589-105.619 50.281-148.317 83.465H141.537c-8.871 0-16.086 7.17-16.086 16.086 0 8.871 7.17 16.087 16.086 16.087h77.95c-41.181 49.086-54.74 112.374-33.644 170.285C214.292 746.039 296.011 792 405.444 792c2.85 0 5.654 0 8.504-.092 68.619-1.425 124.645-20.177 166.471-55.659 6.801-5.745 7.582-15.902 1.838-22.612-5.654-6.711-15.811-7.722-22.658-1.885-36.035 30.519-85.258 46.696-146.387 48.029-98.356 1.057-172.951-36.355-197.173-102.86-20.131-55.199-1.011-117.063 48.305-159.347h386.073c8.869 0 16.086-7.17 16.086-16.087.047-8.87-7.17-16.04-16.041-16.04z"/></symbol><symbol viewBox="0 0 512 512" id="user" xmlns="http://www.w3.org/2000/svg"><path d="M437.02 330.98c-27.883-27.882-61.071-48.523-97.281-61.018C378.521 243.251 404 198.548 404 148 404 66.393 337.607 0 256 0S108 66.393 108 148c0 50.548 25.479 95.251 64.262 121.962-36.21 12.495-69.398 33.136-97.281 61.018C26.629 379.333 0 443.62 0 512h40c0-119.103 96.897-216 216-216s216 96.897 216 216h40c0-68.38-26.629-132.667-74.98-181.02zM256 256c-59.551 0-108-48.448-108-108S196.449 40 256 40s108 48.448 108 108-48.449 108-108 108z"/></symbol></svg>